# xmcd
#
# Track frame offsets: 
#        150
#        22677
#        36495
#        50545
#        64967
#        80362
#        94107
#        112885
#        126845
#        142647
#        156222
#        167980
#        180922
#        196200
#        211662
#        225897
#        240682
#        255602
#        269870
#        284897
#        296780
#
# Disc length: 4153 seconds
#
# Revision: 1
# Processed by: cddbd v1.5.2PL0 Copyright (c) Steve Scherf et al.
# Submitted via: ExactAudioCopy v1.1
#
DISCID=2a103715
DTITLE=Coleman Hawkins - The Hawk In Hi-Fi
DYEAR=1956
DGENRE=Jazz
TTITLE0=Body And Soul (mono)
TTITLE1=Little Girl Blue (master - take 3) (mono)
TTITLE2=I Never Knew (master - take 5) (mono)
TTITLE3=Dinner For One Please, James (master - take 3) (mono)
TTITLE4=The Bean Stalks Again  (mono)
TTITLE5=His Very Own Blues (mono)
TTITLE6=The Day You Came Along (master - take 3) (mono)
TTITLE7=Have You Met Miss Jones (master - take 7) (mono)
TTITLE8=The Essence Of You (mono)
TTITLE9=There Will Never Be Another You (master - take 8) (mono)
TTITLE10=I'm Shooting High (mono)
TTITLE11=Bean And The Boys (39-25-39) (mono)
TTITLE12=There Will Never Be Another You (alt - take 1) (mono)
TTITLE13=There Will Never Be Another You (alt - take 3) (mono)
TTITLE14=Little Girl Blue (alt - take 1) (mono)
TTITLE15=Dinner For One Please, James (alt - take 2) (mono)
TTITLE16=I Never Knew (alt - take 2) (mono)
TTITLE17=Have You Met Miss Jones (alt - take 1) (mono)
TTITLE18=Have You Met Miss Jones (alt - take 3) (mono)
TTITLE19=Have You Met Miss Jones (alt - take 5 - breakdown) (mono)
TTITLE20=The Day You Came Along (alt - take 2) (mono)
EXTD=YEAR: 1956
EXTT0=
EXTT1=
EXTT2=
EXTT3=
EXTT4=
EXTT5=
EXTT6=
EXTT7=
EXTT8=
EXTT9=
EXTT10=
EXTT11=
EXTT12=
EXTT13=
EXTT14=
EXTT15=
EXTT16=
EXTT17=
EXTT18=
EXTT19=
EXTT20=
PLAYORDER=
